<?xml version="1.0" standalone="no"?>
<!DOCTYPE svg PUBLIC "-//W3C//DTD SVG 20010904//EN"
 "http://www.w3.org/TR/2001/REC-SVG-20010904/DTD/svg10.dtd">
<svg version="1.0" xmlns="http://www.w3.org/2000/svg"
 width="180.000000pt" height="180.000000pt" viewBox="0 0 180.000000 180.000000"
 preserveAspectRatio="xMidYMid meet">

<g transform="translate(0.000000,180.000000) scale(0.100000,-0.100000)"
fill="#000000" stroke="none">
<path d="M450 1345 l-445 -445 445 -445 c245 -245 449 -445 455 -445 13 0 885
872 885 885 0 10 -880 895 -890 895 -3 0 -205 -200 -450 -445z m29 -202 c5
-21 24 -103 41 -183 17 -80 34 -152 37 -160 3 -8 22 63 43 157 21 95 41 184
44 198 6 23 10 25 71 25 l65 0 0 -265 0 -265 -40 0 -40 0 -2 208 -3 207 -39
-175 c-58 -262 -49 -240 -101 -240 l-43 0 -40 168 c-22 92 -45 185 -50 207 -8
31 -10 -8 -11 -167 l-1 -208 -40 0 -40 0 0 265 0 265 70 0 69 0 10 -37z m491
-170 c24 -113 45 -202 47 -197 3 12 83 394 83 400 0 2 23 4 51 4 37 0 50 -3
46 -13 -2 -6 -33 -126 -68 -265 l-64 -253 -55 3 -54 3 -63 255 c-34 140 -62
258 -63 263 0 4 22 7 48 7 l49 0 43 -207z m526 177 c56 -53 71 -149 33 -226
-25 -53 -71 -83 -138 -91 l-51 -6 0 -88 0 -89 -50 0 -50 0 0 266 0 266 114 -4
c106 -3 116 -5 142 -28z"/>
<path d="M1340 1004 l0 -96 38 6 c50 9 72 37 72 93 0 54 -33 93 -80 93 l-30 0
0 -96z"/>
</g>
</svg>
